<svg width="24" height="24" viewBox="0 0 24 24" fill="none" xmlns="http://www.w3.org/2000/svg">
<path d="M21.7009 14.4183C20.3648 19.7783 14.9342 23.0366 9.58187 21.7004C4.22171 20.3643 0.963426 14.934 2.2996 9.58171C3.63569 4.22171 9.05835 0.963427 14.4185 2.2996C19.7709 3.62788 23.037 9.0582 21.7009 14.4183Z" fill="#0C0C4F"/>
<path opacity="0.2" fill-rule="evenodd" clip-rule="evenodd" d="M19.918 8.75811C19.602 8.40511 19.108 8.20611 18.629 8.12411C18.1427 8.04665 17.6468 8.05138 17.162 8.13811C16.197 8.30111 15.32 8.70111 14.556 9.19411C14.158 9.43611 13.82 9.71611 13.469 10.0011C13.299 10.1451 13.146 10.2991 12.985 10.4511L12.547 10.8861C12.1056 11.3553 11.6378 11.799 11.146 12.2151C10.689 12.5891 10.263 12.8731 9.842 13.0721C9.422 13.2721 8.972 13.3891 8.386 13.4081C7.806 13.4281 7.118 13.3231 6.383 13.1501C5.643 12.9781 4.868 12.7321 4 12.5211C4.303 13.3611 4.759 14.1031 5.344 14.7811C5.936 15.4471 6.674 16.0551 7.624 16.4541C8.63713 16.8843 9.75603 17.0007 10.836 16.7881C11.939 16.5761 12.906 16.0651 13.688 15.4751C14.4267 14.9074 15.0841 14.2412 15.642 13.4951C15.789 13.2991 15.867 13.1901 15.974 13.0381L16.269 12.6001C16.475 12.3301 16.661 12.0221 16.864 11.7541C17.263 11.1921 17.655 10.6321 18.112 10.1141C18.342 9.85311 18.583 9.60211 18.869 9.36111C19.012 9.24411 19.166 9.12911 19.336 9.02511C19.51 8.91311 19.692 8.82511 19.918 8.75811Z" fill="url(#paint0_linear_47_1365)"/>
<path opacity="0.2" fill-rule="evenodd" clip-rule="evenodd" d="M19.918 8.75621C19.578 7.90021 18.948 7.17921 18.1 6.64721C17.1502 6.07162 16.0202 5.87021 14.93 6.08221C14.3623 6.19342 13.8172 6.39857 13.317 6.68921C12.8477 6.96554 12.4132 7.29725 12.023 7.67721C11.8401 7.85901 11.6643 8.04782 11.496 8.24321L11.058 8.80321L10.38 9.70321C9.517 10.8602 8.587 12.2172 7.062 12.6192C5.564 13.0142 4.914 12.6642 4 12.5202C4.167 12.9512 4.374 13.3702 4.655 13.7392C4.931 14.1152 5.255 14.4692 5.66 14.7712C5.865 14.9172 6.08 15.0612 6.32 15.1812C6.559 15.3002 6.816 15.4032 7.091 15.4812C7.637 15.6312 8.252 15.6832 8.848 15.6032C9.42722 15.5228 9.98915 15.3471 10.511 15.0832C10.9852 14.8445 11.4308 14.5526 11.839 14.2132C12.5574 13.6086 13.1923 12.9111 13.727 12.1392C13.983 11.7785 14.2177 11.4145 14.431 11.0472L14.685 10.6102C14.762 10.4832 14.84 10.3542 14.92 10.2352C15.24 9.75521 15.554 9.37021 15.935 9.08121C16.311 8.78421 16.835 8.56521 17.535 8.51421C18.231 8.46321 19.035 8.55821 19.918 8.75721" fill="white"/>
<path fill-rule="evenodd" clip-rule="evenodd" d="M6.56819 10.3223L6.81519 9.55931C6.83999 9.48314 6.88273 9.41403 6.93981 9.35782C6.99689 9.30161 7.06664 9.25994 7.14319 9.23631L7.91019 9.00031C8.01619 8.96831 8.01719 8.81832 7.91119 8.78432L7.14819 8.53732C7.07201 8.51252 7.00291 8.46978 6.9467 8.4127C6.89049 8.35562 6.84881 8.28586 6.82519 8.20931L6.59019 7.44331C6.583 7.42029 6.5687 7.40014 6.54933 7.38576C6.52997 7.37138 6.50654 7.36351 6.48242 7.36329C6.4583 7.36306 6.43473 7.3705 6.4151 7.38452C6.39548 7.39854 6.3808 7.41843 6.37319 7.44131L6.12719 8.20431C6.1023 8.2806 6.05941 8.34978 6.00214 8.406C5.94488 8.46222 5.87492 8.50383 5.79819 8.52731L5.03219 8.76332C5.00903 8.77021 4.98868 8.78434 4.97415 8.80365C4.95961 8.82295 4.95164 8.84641 4.95142 8.87058C4.9512 8.89474 4.95873 8.91834 4.9729 8.93791C4.98708 8.95749 5.00716 8.972 5.03019 8.97931L5.79319 9.22631C5.86937 9.25111 5.93847 9.29385 5.99468 9.35093C6.05089 9.40801 6.09257 9.47777 6.11619 9.55431L6.35219 10.3203C6.35908 10.3435 6.37322 10.3638 6.39252 10.3784C6.41183 10.3929 6.43529 10.4009 6.45945 10.4011C6.48362 10.4013 6.50722 10.3938 6.52679 10.3796C6.54636 10.3654 6.56087 10.3453 6.56819 10.3223Z" fill="white"/>
<path fill-rule="evenodd" clip-rule="evenodd" d="M14.9524 18.4555C14.946 18.6091 14.9707 18.7624 15.025 18.9062C15.0793 19.05 15.1622 19.1814 15.2686 19.2923C15.375 19.4033 15.5028 19.4916 15.6442 19.5519C15.7856 19.6122 15.9377 19.6433 16.0914 19.6433C16.2451 19.6433 16.3973 19.6122 16.5387 19.5519C16.6801 19.4916 16.8078 19.4033 16.9142 19.2923C17.0206 19.1814 17.1035 19.05 17.1578 18.9062C17.2122 18.7624 17.2369 18.6091 17.2304 18.4555C17.2181 18.1617 17.0927 17.884 16.8805 17.6805C16.6682 17.4769 16.3855 17.3633 16.0914 17.3633C15.7973 17.3633 15.5146 17.4769 15.3024 17.6805C15.0901 17.884 14.9647 18.1617 14.9524 18.4555Z" fill="#EC796B"/>
<path d="M16.5469 11.0859C16.7422 9.75782 15.7344 9.03906 14.3438 8.5625L14.7969 6.75781L13.7031 6.48438L13.2656 8.24219C12.9766 8.17188 12.6797 8.10156 12.3828 8.03906L12.8203 6.27344L11.7266 6L11.2813 7.79688C11.0391 7.74219 10.8047 7.6875 10.5781 7.63281V7.625L9.0625 7.25L8.77344 8.42188C8.77344 8.42188 9.58594 8.60938 9.57031 8.61719C10.0156 8.72656 10.0938 9.02344 10.0781 9.25782L9.5625 11.3125C9.59375 11.3203 9.63281 11.3281 9.67969 11.3516C9.64063 11.3438 9.60156 11.3359 9.5625 11.3203L8.84375 14.1953C8.78906 14.3281 8.64844 14.5313 8.34375 14.4531C8.35156 14.4688 7.54688 14.2578 7.54688 14.2578L7 15.5156L8.42969 15.875C8.69531 15.9453 8.95313 16.0078 9.21094 16.0781L8.75781 17.8984L9.85156 18.1719L10.3047 16.3672C10.6016 16.4453 10.8984 16.5234 11.1797 16.5938L10.7344 18.3906L11.8281 18.6641L12.2813 16.8438C14.1563 17.1953 15.5625 17.0547 16.1484 15.3594C16.625 14 16.125 13.2109 15.1406 12.6953C15.8672 12.5313 16.4063 12.0547 16.5469 11.0859ZM14.0391 14.6016C13.7031 15.9609 11.4063 15.2266 10.6641 15.0391L11.2656 12.625C12.0078 12.8125 14.3984 13.1797 14.0391 14.6016ZM14.3828 11.0625C14.0703 12.3047 12.1641 11.6719 11.5469 11.5156L12.0938 9.32813C12.7109 9.48438 14.7031 9.77344 14.3828 11.0625Z" fill="white"/>
<defs>
<linearGradient id="paint0_linear_47_1365" x1="22.108" y1="2.43711" x2="-16.236" y2="13.4931" gradientUnits="userSpaceOnUse">
<stop stop-color="#EC796B"/>
<stop offset="1" stop-color="#D672EF"/>
</linearGradient>
</defs>
</svg>
